# xmcd
#
# Track frame offsets:
#	150
#	15490
#	31777
#	45739
#	74140
#	87297
#	106640
#	121075
#	134070
#	148410
#	166435
#	180617
#
# Disc length: 2566 seconds
#
# Revision: 0
# Processed by: cddbd v1.5.1PL0 Copyright (c) Steve Scherf et al.
# Submitted via: dBpowerAMP V4.0
#
DISCID=a60a040c
DTITLE=Chris Stuart and Backcountry - Saints and Strangers
DYEAR=2003
DGENRE=Bluegrass
TTITLE0=Silver Quarter
TTITLE1=Jimmie Brown Revisited
TTITLE2=From Now On
TTITLE3=Saints and Strangers
TTITLE4=Buckshot
TTITLE5=This Body Is A Honkey Tonk
TTITLE6=Paul and Peter Walked
TTITLE7=Lonesome For You
TTITLE8=Searching For My Old Kentucky Home
TTITLE9=His Glory Will Last
TTITLE10=Just Tell A Lie
TTITLE11=Twenty Naked Pentacostals In A Pontiac
EXTD=
EXTT0=
EXTT1=
EXTT2=
EXTT3=
EXTT4=
EXTT5=
EXTT6=
EXTT7=
EXTT8=
EXTT9=
EXTT10=
EXTT11=
PLAYORDER=
